<mxfile host="app.diagrams.net" modified="2023-11-28T14:41:16.998Z" agent="Mozilla/5.0 (Windows NT 10.0; Win64; x64) AppleWebKit/537.36 (KHTML, like Gecko) Chrome/119.0.0.0 Safari/537.36" version="22.1.4" etag="AeJfKUGm1G96pbjOVr0X" type="github">
  <diagram name="Page-1" id="td3lFjBkR0syqM5A5wFq">
    <mxGraphModel>
      <root>
        <mxCell id="0" />
        <mxCell id="1" parent="0" />
      </root>
    </mxGraphModel>
  </diagram>
</mxfile>
